# xmcd
#
# Track frame offsets:
#	150
#	14489
#	31908
#	45257
#	61464
#	74038
#	87412
#	97227
#	111075
#	127885
#	141722
#	165014
#	182294
#
# Disc length: 2661 seconds
#
# Revision: 1
# Processed by: cddbd v1.5.2PL0 Copyright (c) Steve Scherf et al.
# Submitted via: EasyCDDAExtractor 10.0.1.1
#
DISCID=ae0a630d
DTITLE=The General (Gypsy Carns) - Revelation Blues
DYEAR=2001
DGENRE=Blues
TTITLE0=Prain' to You
TTITLE1=Holy Son
TTITLE2=5th Trumpet Blow
TTITLE3=Jesus is Calling
TTITLE4=Preacher
TTITLE5=Mean Woman Blues
TTITLE6=Jezebel
TTITLE7=That's How it Goes
TTITLE8=7 Seals
TTITLE9=We Can't Go Back
TTITLE10=Say You Love Him
TTITLE11=Lay it All Down
TTITLE12=Hush Your Mouth
EXTD=
EXTT0=
EXTT1=
EXTT2=
EXTT3=
EXTT4=
EXTT5=
EXTT6=
EXTT7=
EXTT8=
EXTT9=
EXTT10=
EXTT11=
EXTT12=
PLAYORDER=
